<?xml version="1.0" encoding="utf-8"?>
<!-- Generator: Adobe Illustrator 18.1.1, SVG Export Plug-In . SVG Version: 6.00 Build 0)  -->
<svg version="1.1" id="Layer_1" xmlns="http://www.w3.org/2000/svg" xmlns:xlink="http://www.w3.org/1999/xlink" x="0px" y="0px"
	 viewBox="0 0 44.2 36" enable-background="new 0 0 44.2 36" xml:space="preserve">
<rect fill="none" width="44.2" height="36"/>
<path fill="#FFFFFF" d="M42.1,34.1c0,0.5,0.4,0.9,0.9,0.9c0.5,0,0.9-0.4,0.9-0.9c0-0.5-0.4-0.9-0.9-0.9
	C42.6,33.1,42.1,33.6,42.1,34.1"/>
<g>
	<path fill="#FFFFFF" d="M23,0v9.7L15.2,0H3.3v9.7h4.1v16.5H3.3V36h17.9v-9.7l7.7,9.7h11.9v-9.7h-4.1V9.7h4.1V0H23z M17.1,26.3v-5.1
		l4,5.1H17.1z M27,9.7v5.1l-4-5.1H27z"/>
	<path fill="#231F20" d="M27.9,17.2c-1.1-1.3-13-16.3-13-16.3H4.1v8.1h4.1v18.2H4.1v8.1h16.2v-8.1h-4.1v-8.3
		c1.1,1.3,13,16.3,13,16.3H40v-8.1h-4.1V8.9H40V0.8H23.8v8.1h4.1V17.2z"/>
	<path fill="#FFFFFF" d="M33.6,5.9c0.5-0.4,1.1-0.5,1.8-0.5c0.3,0,0.6,0,0.8,0c0.2,0,0.3,0,0.3,0V4.4h-9.3v0.9h1.3
		c0.5,0,1.1,0.1,1.6,0.4C30.6,6.1,31,6.8,31,8v17.7L14,4.4H7.6v0.9C8.1,5.3,9,5.6,9.8,6c0.8,0.5,1.5,1.1,1.5,1.8v20.1
		c0,1.1-0.3,1.8-0.7,2.2c-0.5,0.4-1.1,0.5-1.8,0.5c-0.3,0-0.6,0-0.8,0c-0.2,0-0.3,0-0.3,0v0.9h9.3v-0.9h-1.3c-0.5,0-1.1-0.1-1.6-0.4
		c-0.5-0.4-0.9-1-0.9-2.2V10.2l17,21.4h6.3v-0.9c-0.5,0-1.4-0.3-2.2-0.7c-0.8-0.5-1.5-1.1-1.5-1.8V8.1C32.9,6.9,33.2,6.3,33.6,5.9"
		/>
	<path fill="#231F20" d="M44.2,34.1c0,0.6-0.5,1.1-1.1,1.1s-1.1-0.5-1.1-1.1c0-0.6,0.5-1.1,1.1-1.1C43.7,33,44.2,33.5,44.2,34.1
		 M42.1,34.1c0,0.5,0.4,0.9,0.9,0.9c0.5,0,0.9-0.4,0.9-0.9c0-0.5-0.4-0.9-0.9-0.9C42.6,33.1,42.1,33.6,42.1,34.1 M42.7,33.4H43
		c0.1,0,0.2,0,0.3,0c0.1,0,0.2,0.2,0.2,0.3c0,0.2-0.1,0.3-0.3,0.4l0.4,0.6h-0.2L43,34.1h-0.1v0.6h-0.2V33.4z M43,34
		c0.2,0,0.3-0.1,0.3-0.2c0-0.1-0.1-0.2-0.2-0.2H43h-0.1L43,34L43,34z"/>
</g>
</svg>
